inDegrees=no
num_controls=7
num_derivatives=13
num_iterations=89
num_multipliers=7
num_parameters=0
num_slacks=7
num_states=26
objective=4.939995
objective_accelerations=0.529423
objective_balance=0.021339
objective_effort=0.150496
objective_height=4.212256
objective_ligament=0.026481
solver_duration=987.799531
status=Solve_Succeeded
success=true
DataType=double
version=3
OpenSimVersion=4.4-2022-07-23-0e9fedc
endheader
time	/jointset/ground_pelvis/pelvis_tilt/value	/jointset/ground_pelvis/pelvis_tx/value	/jointset/ground_pelvis/pelvis_ty/value	/jointset/hip_l/hip_flexion_l/value	/jointset/hip_l/hip_adduction_l/value	/jointset/hip_l/hip_rotation_l/value	/jointset/back/lumbar_extension/value	/jointset/patellofemoral_l/patellar_flexion_l/value	/jointset/knee_l/knee_flexion_l/value	/jointset/knee_l/knee_adduction_l/value	/jointset/knee_l/knee_rotation_l/value	/jointset/ankle_l/ankle_angle_l/value	/jointset/subtalar_l/subtalar_angle_l/value	/jointset/ground_pelvis/pelvis_tilt/speed	/jointset/ground_pelvis/pelvis_tx/speed	/jointset/ground_pelvis/pelvis_ty/speed	/jointset/hip_l/hip_flexion_l/speed	/jointset/hip_l/hip_adduction_l/speed	/jointset/hip_l/hip_rotation_l/speed	/jointset/back/lumbar_extension/speed	/jointset/patellofemoral_l/patellar_flexion_l/speed	/jointset/knee_l/knee_flexion_l/speed	/jointset/knee_l/knee_adduction_l/speed	/jointset/knee_l/knee_rotation_l/speed	/jointset/ankle_l/ankle_angle_l/speed	/jointset/subtalar_l/subtalar_angle_l/speed	/forceset/tau_hip_flexion_l	/forceset/tau_hip_adduction_l	/forceset/tau_hip_rotation_l	/forceset/tau_knee_flexion_l	/forceset/tau_ankle_angle_l	/forceset/tau_subtalar_angle_l	/forceset/tau_lumbar_extension	lambda_cid13_p0	lambda_cid13_p1	lambda_cid13_p2	lambda_cid13_p3	lambda_cid13_p4	lambda_cid13_p5	lambda_cid14_p0	/jointset/ground_pelvis/pelvis_tilt/accel	/jointset/ground_pelvis/pelvis_tx/accel	/jointset/ground_pelvis/pelvis_ty/accel	/jointset/hip_l/hip_flexion_l/accel	/jointset/hip_l/hip_adduction_l/accel	/jointset/hip_l/hip_rotation_l/accel	/jointset/back/lumbar_extension/accel	/jointset/patellofemoral_l/patellar_flexion_l/accel	/jointset/knee_l/knee_flexion_l/accel	/jointset/knee_l/knee_adduction_l/accel	/jointset/knee_l/knee_rotation_l/accel	/jointset/ankle_l/ankle_angle_l/accel	/jointset/subtalar_l/subtalar_angle_l/accel	gamma_cid13_p0	gamma_cid13_p1	gamma_cid13_p2	gamma_cid13_p3	gamma_cid13_p4	gamma_cid13_p5	gamma_cid14_p0
1	-0.3722352352142267	0.02826301187101965	0.667062301881415	1.412792680153137	-0.3674289138645239	0.1327887122684571	-0.4363244495435561	1.318728553503179	1.318728553503228	-0.03338998524982003	-0.1744964520315035	0.4348510468808326	0.2149912592063944	-0.1300469776613958	0.003262120895621196	0.02655766632245437	0.03220795043064217	-0.0007765613432800239	-0.04677169284720539	-0.0003888883415822466	-0.1418988495633998	-0.1418988495634211	-0.009711624784644901	-7.012382758132612e-05	-0.05644223391414335	-0.03248706318264635	-0.1954097135237156	0.05807879006082385	-0.0007834447436953755	-0.2618644320898723	-0.04595587482776045	0.004977790404643614	0.1821762916546074	-45.48114866264009	10.22849270442114	-6.968327653230566	2.134477438729145	-523.1086293154393	-57.21874286853355	-0.0247005766301948	1.405869936711221	0.2968514091701119	1.531384397263171	-5.505738918121949	-0.1795504665187521	-1.534427551703866	-0.0418243760579915	-4.778111123241197	-4.77811112324129	-0.5283519213823719	-0.02409237608440426	-1.087514288480094	-0.8771877176821533	-9.810818201608794e-09	-7.504963631202191e-08	6.855909215854924e-08	8.281395652140673e-09	-1.215248227648125e-08	-6.385134652623158e-08	-1.304241257654766e-08
1.01	-0.3734665171599945	0.02831044110765605	0.667404256287915	1.412840871508874	-0.3674450370681739	0.1322441193164075	-0.436328862960583	1.317070831469661	1.317070831469763	-0.03351237918496273	-0.1744971897609547	0.4342322096627472	0.2146235855382501	-0.1162355280519809	0.006225876778792796	0.04182813907535513	-0.02254384917704731	-0.002444014847340623	-0.06215142496968384	-0.0004335484240664323	-0.189664285362163	-0.1896642853621731	-0.01476333368631105	-7.605933407159668e-05	-0.06734425322703204	-0.04104439513050787	-0.1960360209614836	0.05820936638890319	-0.0008159429330706022	-0.2608017975125786	-0.04660639882289927	0.005000905566911791	0.1825792787796034	-45.67157752187393	10.20313801240091	-6.908705637795686	2.169014331050531	-523.117821140014	-57.0997332361254	-0.02471721057308775	1.364865328466148	0.2964616927099602	1.524113791724877	-5.456026036921584	-0.1597432361508334	-1.540441634757022	0.0232501876794852	-4.778565706588	-4.778565706586824	-0.4930195989297999	0.01137079467803617	-1.094408297115265	-0.8445094784659483	-1.185890128275093e-08	-9.454022731778966e-08	8.290389720367224e-08	7.336179832545937e-09	-1.762928228064843e-08	-7.439459270440614e-08	-1.663437862530663e-08
1.02	-0.3745604680384811	0.02838757270608737	0.6678987624374305	1.412342319757883	-0.3674777148955944	0.1315455899247369	-0.4363319155763111	1.314934893898477	1.314934893898441	-0.03368517805395334	-0.1744979438588955	0.4335037797426034	0.2141704378415965	-0.1025807642262268	0.009202593254603405	0.05706801492551532	-0.07714067097794118	-0.004087486103483887	-0.07755898078162636	-0.0001167280256797241	-0.2375419570966664	-0.2375419570966669	-0.01979261156280197	-7.339753617550946e-05	-0.07836077431680108	-0.04958186888346576	-0.1966623283972591	0.05833994271730601	-0.0008484411224855581	-0.2597391629351642	-0.04725692281819384	0.005024020729622335	0.1829822659066222	-45.86733943575886	10.17791218576454	-6.848184930558626	2.200402633255442	-523.2561769756317	-56.97632752419825	-0.02473198025755964	1.374532779980488	0.2994435276969969	1.525265016714948	-5.47474335676257	-0.1747540169348662	-1.53999228959634	0.03047172012043471	-4.800558310388973	-4.80055831038937	-0.5238657163470359	-0.02237291520668123	-1.110414643857518	-0.8732160787015204	-1.419834847125334e-08	-1.157981691594462e-07	9.61241908266224e-08	5.438936734866655e-09	-2.228661023499714e-08	-8.010061885954021e-08	-2.109021103594052e-08
1.03	-0.3755185115157679	0.02849467560712512	0.6685454162644869	1.411298504296749	-0.3675267381414339	0.1306930733074158	-0.4363292894641746	1.312319958971267	1.312319958971323	-0.0339082787175598	-0.1744986259656744	0.4326649128093557	0.2136321566148065	-0.08904070354702466	0.0122341248223939	0.07224773661926995	-0.1316026111540004	-0.005717714019665234	-0.09293988196010133	0.0007740076182456183	-0.2854300954662337	-0.2854300954662169	-0.02482553322002465	-6.937814340559537e-05	-0.08940205285157132	-0.05805937597823047	-0.1975536189120009	0.05850153911268305	-0.0008923734558509622	-0.2581048706064263	-0.04821306344414049	0.005084753026516057	0.1836642390169535	-46.13723164692095	10.12272013029545	-6.752492983104363	2.176481300911919	-523.2115110503837	-56.81606214960722	-0.02474729003552478	1.341826544366584	0.3074293435101435	1.512068250104722	-5.42894870396421	-0.157251057461718	-1.536494835379369	0.1381830344172955	-4.780696529654016	-4.780696529651184	-0.4927284158740108	0.01085000063104546	-1.099409256837603	-0.8327591387414872	-1.654076876289208e-08	-1.370741451933057e-07	1.093330098432238e-07	3.53197907312528e-09	-2.693557622965382e-08	-8.575728562668406e-08	-2.55548584094507e-08
1.04	-0.3763415376197335	0.02863257809827929	0.6693434158093622	1.409710663562857	-0.3675920824421219	0.1296868765177075	-0.4363137942858392	1.309226591674479	1.309226591674493	-0.03418165320266202	-0.1744994557516898	0.4317159481310079	0.2130095520942908	-0.07557728956872833	0.01536251127788807	0.08733715848918802	-0.1859457255675052	-0.00735169707596422	-0.1082950152748297	0.002457085177563876	-0.3332284310123437	-0.3332284310123076	-0.02984737589581032	-0.0001029333861110842	-0.100380323328404	-0.06644652762808481	-0.1984449094254234	0.05866313550845897	-0.0009363057872331877	-0.2564705782775668	-0.04916920407016039	0.005145485323981046	0.1843462121286003	-46.41264703210796	10.0678547309226	-6.656121782783262	2.149082562755195	-523.2972120383175	-56.65206187670004	-0.02476035188695782	1.359203439800909	0.3188145052366447	1.507205051947525	-5.450978204251355	-0.175505044957817	-1.53483871684654	0.1889401031904511	-4.782597745697268	-4.782597745697252	-0.5216499200592604	-0.02988784230100139	-1.097813032271611	-0.8551449897194191	-1.859517124298288e-08	-1.646146741962488e-07	1.173391493441281e-07	8.509695453688245e-10	-3.183680519835577e-08	-1.049439774280091e-07	-2.858123925430836e-08
1.05	-0.3770306547019011	0.02880225785137252	0.6702917760991488	1.407580421353924	-0.3676737382574108	0.1285275880872046	-0.4362769857766052	1.305655706190621	1.305655706190493	-0.03450543654564817	-0.1745006503589916	0.430657439162998	0.2123035760950224	-0.06229511864235761	0.0185905846973471	0.1023114925822174	-0.2400375840849762	-0.008975820477554169	-0.1235439548837946	0.005091797365029726	-0.3809325835819833	-0.3809325835819669	-0.03491524759052886	-0.0001336364488004484	-0.1113186288405637	-0.07472913013210734	-0.1992213969394367	0.05882786295427658	-0.0009815124745806935	-0.2546275939699916	-0.05013662820664029	0.005242155837176044	0.1849814685272067	-46.67252978522994	9.982663221160367	-6.541210450604678	2.108817461454406	-523.1742855956976	-56.50409045297291	-0.02478173123687323	1.305374309604367	0.3273751625045501	1.48902915603489	-5.378521376190603	-0.1553303722710872	-1.517146085981094	0.3288138614736866	-4.761905342729936	-4.761905342732788	-0.5002777407302491	0.01070503818728617	-1.091424933914481	-0.8118707495687612	-2.064057316646282e-08	-1.923509704794758e-07	1.251827051101669e-07	-1.854229103200597e-09	-3.674591738499663e-08	-1.245534825116521e-07	-3.156267427014564e-08
1.06	-0.3775884199967651	0.0290047326191017	0.6713891760434759	1.404911214219275	-0.3677715281837016	0.1272163653601805	-0.4362082147278322	1.301608262915039	1.301608262915041	-0.03488008299482322	-0.1745020786816669	0.4294896300151647	0.2115153634969487	-0.04930693209404496	0.02192151420507869	0.117145089397194	-0.2937387106303411	-0.01057851925969006	-0.1386818746151247	0.008849592950422428	-0.4285399893569627	-0.4285399893569661	-0.0400199971473029	-0.000149676453845527	-0.1222403592818193	-0.0828938473891222	-0.1999978844563166	0.05899259040047128	-0.001026719162694096	-0.2527846096623987	-0.05110405234260117	0.00533882635129213	0.1856167249228985	-46.93812706508713	9.898021170299577	-6.425871578899035	2.064081102259508	-523.1825741326892	-56.35344272400994	-0.02480038997292185	1.300406564190924	0.3393857228900535	1.479057596336854	-5.372831809829651	-0.1712201210662973	-1.512634741318999	0.413556782772488	-4.763248386765036	-4.763248386765022	-0.5290254924699409	-0.02695523077110562	-1.094498018092385	-0.8315679403176851	-2.242213459988931e-08	-2.288288075221666e-07	1.191019311950126e-07	-7.259819867469227e-09	-3.99845691435768e-08	-1.515613121635128e-07	-3.322818727876814e-08
